<svg width="3243" height="840" xmlns="http://www.w3.org/2000/svg" xmlns:xlink="http://www.w3.org/1999/xlink" xml:space="preserve" overflow="hidden"><defs><clipPath id="clip0"><rect x="524" y="398" width="3243" height="840"/></clipPath><clipPath id="clip1"><rect x="2355" y="446" width="1413" height="792"/></clipPath><clipPath id="clip2"><rect x="2355" y="446" width="1413" height="792"/></clipPath><clipPath id="clip3"><rect x="2355" y="446" width="1413" height="792"/></clipPath><clipPath id="clip4"><rect x="2469" y="554" width="1185" height="576"/></clipPath><clipPath id="clip5"><rect x="2469" y="554" width="1185" height="576"/></clipPath><clipPath id="clip6"><rect x="2469" y="554" width="1185" height="576"/></clipPath></defs><g clip-path="url(#clip0)" transform="translate(-524 -398)"><path d="M688.397 663.802C739.951 663.802 795.273 689.272 823.341 728.072 851.406 689.272 906.79 658.881 958.343 658.881 1045.93 658.881 1122.74 722.784 1122.74 845.157L1124.71 927.693C1124.71 1054.57 1208.41 1070.81 1242.88 1070.81 1277.35 1070.81 1357.9 1047.74 1357.9 939.45L1357.9 711.027C1357.9 671.736 1417.19 671.736 1417.19 711.027L1417.19 939.45C1415.08 1082.2 1311.81 1129.79 1242.88 1129.79 1173.95 1129.79 1065.62 1089.03 1065.62 927.693L1063.62 840.379C1063.62 737.637 991.765 722.797 958.343 722.797 905.696 722.797 853.05 766.547 853.05 840.379L853.05 1100.35C853.05 1116.66 839.816 1129.79 823.498 1129.79L823.37 1129.79 823.242 1129.79C806.924 1129.79 793.688 1116.66 793.688 1100.35L793.688 840.379C793.688 766.547 741.044 722.797 688.397 722.797 635.751 722.797 583.086 750.569 583.115 859.673L583.115 1100.35C583.115 1116.56 569.881 1129.79 553.553 1129.79 537.235 1129.79 524 1116.66 524 1100.35L524 859.673C524 716.113 603.215 663.802 688.397 663.802ZM1237 457.067C1161.75 457.067 1118.24 521.057 1118.24 580.124 1118.24 624.423 1059.19 624.423 1059.18 580.124 1059.18 476.756 1137.13 398 1237 398 1336.86 398 1414.84 476.756 1414.84 580.124 1414.84 624.423 1355.61 624.423 1355.61 580.124 1355.61 521.057 1312.25 457.067 1237 457.067ZM1242.7 542.788C1264.25 542.788 1281.7 560.231 1281.7 581.772 1281.7 603.313 1264.25 620.757 1242.7 620.757 1221.15 620.757 1203.71 603.313 1203.71 581.772 1203.71 560.231 1221.16 542.788 1242.7 542.788ZM1737.4 884.066C1830.26 914.408 1846.67 965.35 1844.39 1003.05 1840.2 1075.37 1767.36 1130 1675.11 1130 1598.08 1130 1533.69 1089.4 1507.12 1024.14 1500.95 1009.02 1508.22 991.814 1523.23 985.64 1538.26 979.576 1555.58 986.733 1561.75 1001.85 1579.37 1045.13 1621.76 1071 1675.11 1071 1741.59 1071 1783.48 1034.69 1785.47 999.569 1785.97 989.421 1787.56 962.662 1721.68 941.172L1610.42 904.758C1538.47 880.982 1505.03 842.977 1508.01 788.757 1511.89 717.525 1583.35 663.802 1674.31 663.802 1750.93 663.802 1815.72 704.891 1839.61 768.562 1845.38 783.783 1837.51 800.795 1822.29 806.466 1807.26 812.235 1790.15 804.376 1784.38 789.156 1769.35 748.763 1726.16 722.699 1674.41 722.699 1615.39 722.699 1569.21 752.446 1567.03 791.942 1566.33 804.376 1565.04 827.458 1629.13 848.648L1737.4 884.066ZM2304.98 855.77C2304.98 890.226 2285.29 914.839 2240.97 915.304L1980.43 915.304C1985.91 1011.81 2047.26 1070.9 2123.49 1070.9 2169.56 1070.9 2226.2 1038.16 2245.9 998.516 2253.17 983.888 2270.65 981.408 2285.29 988.671 2299.81 995.937 2301.12 1010.46 2293.76 1024.98 2265.63 1092.04 2189.25 1129.89 2123.49 1129.89 2009.74 1129.89 1920.92 1036.18 1920.92 896.8 1920.92 757.42 2007.18 663.802 2121.03 663.802 2233.54 663.802 2304.98 773.061 2304.98 855.77ZM1982.52 856.307 2231.13 856.307C2248.85 857.74 2250.66 843.617 2247.87 831.159 2234.61 772.093 2184.85 722.699 2121.03 722.699 2050.76 722.699 1993.77 772.84 1982.52 856.307ZM2616.85 884.066C2709.71 914.408 2726.12 965.35 2723.84 1003.05 2719.65 1075.37 2646.81 1130 2554.56 1130 2477.53 1130 2405.46 1045.5 2386.56 1024.14 2367.67 1002.78 2413.2 994.042 2441.2 1001.85 2469.2 1009.66 2501.21 1071 2554.56 1071 2621.04 1071 2662.93 1034.69 2664.92 999.569 2665.42 989.421 2667.01 962.662 2601.13 941.172L2719.06 768.562C2724.83 783.783 2716.97 800.795 2701.74 806.466 2686.71 812.235 2669.6 804.376 2663.83 789.156 2649.68 802.089 2606.85 848.416 2616.85 884.066ZM3099.38 791.809C3052.54 807.126 2875.09 850.326 2856.59 896.84 2856.59 1004.16 2910 1070.89 2988.39 1070.89 3035.77 1070.89 3077.23 1046.92 3099.19 1001.78 3106.21 987.244 3123.45 981.277 3137.51 988.642 3151.57 995.897 3157.35 1013.61 3150.22 1028.23 3118.83 1092.78 3056.76 1129.77 2988.39 1129.77 2878.31 1129.77 2774.61 950.879 2799.48 896.739 2824.35 842.6 3087.63 822.425 3137.61 804.937 3187.59 787.449 3106.3 806.429 3099.38 791.809ZM3418 663.802C3531.96 663.802 3613.28 757.494 3613.28 896.739 3613.28 1036.18 3531.85 1129.77 3418 1129.77 3304.28 1129.77 3222.82 1036.08 3222.82 896.739 3222.82 757.396 3304.17 663.802 3418 663.802ZM3418 1070.89C3499.11 1070.89 3554.27 1004.16 3554.27 896.84 3554.27 789.422 3499.01 722.784 3418 722.784 3337.02 722.784 3281.83 789.52 3281.83 896.84 3281.83 1004.16 3337.02 1070.89 3418 1070.89ZM3765.4 756.832C3765.59 748.636 3766.73 702.707 3767 693.765L3767 703.182C3767 717.453 3766.5 729.191 3765.88 742.944 3765.72 746.722 3765.56 752.656 3765.4 756.832Z" fill="#1F74BD" fill-rule="evenodd"/><g clip-path="url(#clip1)"><g clip-path="url(#clip2)"><g clip-path="url(#clip3)"><path d="M1270.8 0C1348.78-5.01643e-14 1412 63.2174 1412 141.2L1412 635.4C1412 713.383 1348.78 776.6 1270.8 776.6L141.2 776.6C63.2174 776.6 0 713.383 0 635.4L0 141.2C-2.50822e-14 63.2174 63.2174-2.50822e-14 141.2-5.01643e-14Z" fill="#1F74BD" transform="matrix(1 0 0 1.00035 2355 452.65)"/></g></g></g><g clip-path="url(#clip4)"><g clip-path="url(#clip5)"><g clip-path="url(#clip6)"><path d="M299.336 568.671 0 568.671 0 34.3685 62.1253 34.3685 62.1253 513.126 299.336 513.126 299.336 568.671Z" stroke="#FFFFFF" stroke-width="29.4684" stroke-linecap="round" fill="#FFFFFF" transform="matrix(1 0 0 1 2486.11 554)"/><path d="M672.494 296.405 672.494 568.671 628.27 568.671 616.575 509.477 613.643 509.477C607.805 517.133 601.515 524.434 594.806 531.339 589.683 536.609 584.257 541.576 578.557 546.216 566.957 555.54 553.787 562.721 539.667 567.423 538.559 567.801 537.446 568.165 536.329 568.515 520.382 573.505 500.828 576 477.666 576 466.091 576.052 454.539 574.977 443.173 572.787 432.713 570.772 422.521 567.56 412.796 563.213 394.376 555.074 378.842 541.562 368.229 524.447 362.444 515.05 358.24 504.767 355.786 494.008 353.228 483.321 351.95 471.543 351.95 458.673 351.95 419.19 367.408 388.751 398.325 367.356 398.709 367.094 399.093 366.834 399.479 366.577 431.145 345.14 479.381 333.445 544.189 331.491L613.269 328.559 613.269 304.077C613.315 295.61 612.794 287.15 611.709 278.753 609.173 259.999 603.549 245.549 594.837 235.402 593.624 233.98 592.333 232.627 590.97 231.348 582.472 223.543 572.243 217.867 561.123 214.787 551.372 211.939 540.373 210.515 528.127 210.515 507.169 210.515 487.188 213.561 468.185 219.653 449.66 225.545 431.578 232.747 414.075 241.203L395.456 195.171C405.985 189.796 416.826 185.057 427.922 180.98 437.677 177.394 447.571 174.2 457.581 171.406 480.055 165.163 503.244 161.86 526.568 161.582 528.179 161.559 529.79 161.548 531.402 161.551 544.533 161.468 557.65 162.407 570.636 164.357 599.099 168.828 621.471 178.61 637.751 193.705 649.015 204.393 657.559 217.62 662.669 232.284 666.558 242.825 669.292 254.645 670.872 267.744 671.983 277.257 672.525 286.827 672.494 296.405ZM612.551 408.243 612.551 371.317 551.518 373.874C539.917 374.301 528.337 375.185 516.806 376.525 494.039 379.228 475.493 383.698 461.168 389.936 455.805 392.224 450.685 395.045 445.886 398.356 425.427 412.744 415.198 433.089 415.198 459.39 415.198 476.502 419.065 490.286 426.799 500.745 429.434 504.288 432.528 507.465 436 510.194 448.745 520.258 465.264 525.705 485.556 526.537 487.437 526.617 489.319 526.659 491.201 526.661 504.498 526.765 517.754 525.183 530.653 521.952 548.359 517.53 564.772 508.993 578.557 497.033 592.252 484.932 602.116 469.096 606.938 451.469 610.68 438.682 612.551 424.273 612.551 408.243Z" stroke="#FFFFFF" stroke-width="29.4684" stroke-linecap="round" fill="#FFFFFF" transform="matrix(1 0 0 1 2486.11 554)"/><path d="M797.461 0 858.152 0 858.152 142.183C858.163 157.067 857.789 171.948 857.029 186.812 856.979 187.769 856.927 188.725 856.873 189.682 856.208 201.429 855.657 211.18 855.22 218.935 855.096 221.119 854.971 223.302 854.846 225.485L858.152 225.485C866.161 212.472 876.439 201 888.497 191.615 893.956 187.322 899.686 183.384 905.65 179.826 923.739 168.973 946.184 162.861 972.984 161.488 976.973 161.282 980.966 161.178 984.96 161.176 1003.66 160.98 1022.28 163.77 1040.1 169.441 1065.39 177.736 1087.87 192.909 1105.03 213.259 1118.69 229.538 1129.08 248.303 1135.63 268.523 1141.16 284.824 1145.07 302.965 1147.35 322.945 1149.02 337.919 1149.83 352.976 1149.79 368.042 1149.85 384.623 1148.81 401.189 1146.67 417.63 1143.42 441.728 1137.64 463.205 1129.33 482.063 1123.37 495.835 1115.68 508.789 1106.43 520.611 1096.67 533.034 1084.88 543.725 1071.57 552.235 1053.19 563.8 1032.53 571.258 1011 574.097 1001.89 575.379 992.696 576.014 983.494 576 951.828 576 925.818 570.085 905.463 558.254 895.769 552.701 886.712 546.102 878.455 538.575 870.823 531.588 864.115 523.654 858.495 514.966L853.755 514.966 841.342 568.671 797.461 568.671 797.461 0ZM858.152 366.576 858.152 369.851C858.152 401.662 861.489 428.743 868.163 451.094 871.641 463.207 876.751 474.79 883.351 485.525 897.947 508.687 922.897 521.796 958.201 524.852 963.823 525.335 969.462 525.575 975.105 525.57 986.931 525.691 998.711 524.073 1010.07 520.767 1030.11 514.842 1047.42 502.044 1058.97 484.621 1066.89 472.741 1072.94 459.72 1076.93 446.011 1080.65 433.765 1083.34 420.208 1084.98 405.342 1086.32 392.83 1086.98 380.253 1086.94 367.668 1086.94 316.645 1077.96 278.098 1060 252.025 1059.78 251.712 1059.56 251.4 1059.34 251.09 1045.26 231.002 1023.54 217.584 999.275 213.977 991.292 212.607 983.204 211.939 975.105 211.981 965.899 211.933 956.703 212.59 947.597 213.945 931.13 216.482 917.273 221.493 906.025 228.978 893.623 237.315 883.571 248.698 876.833 262.036 873.823 267.847 871.298 273.898 869.286 280.125 863.631 297.486 860.127 318.35 858.776 342.718 858.348 350.664 858.14 358.62 858.152 366.577Z" stroke="#FFFFFF" stroke-width="29.4684" stroke-linecap="round" fill="#FFFFFF" transform="matrix(1 0 0 1 2486.11 554)"/></g></g></g></g></svg>