<svg width="2724" height="1100" xmlns="http://www.w3.org/2000/svg" xmlns:xlink="http://www.w3.org/1999/xlink" xml:space="preserve" overflow="hidden"><defs><clipPath id="clip0"><rect x="1169" y="328" width="2724" height="1100"/></clipPath></defs><g clip-path="url(#clip0)" transform="translate(-1169 -328)"><path d="M1854.73 838.602C1900.97 859.614 1938.01 891.92 1965.86 935.522 1993.71 979.123 2007.64 1026.66 2007.64 1078.14 2007.64 1085.5 2007.11 1092.85 2006.06 1100.21 2006.06 1190.55 1965.34 1267.78 1883.89 1331.87 1802.45 1395.96 1703.66 1428 1587.53 1428 1471.4 1428 1372.62 1395.96 1291.17 1331.87 1209.72 1267.78 1169 1190.55 1169 1100.21 1170.05 1046.62 1184.76 997.771 1213.14 953.645 1241.51 909.519 1278.82 875.899 1325.06 852.785 1287.23 831.773 1256.75 802.355 1233.63 764.533 1210.51 726.711 1198.95 685.212 1198.95 640.034 1198.95 633.731 1198.95 627.427 1198.95 621.123 1198.95 540.226 1236.79 471.146 1312.45 413.888 1388.12 356.63 1480.07 328 1588.32 328 1696.57 328 1789.05 356.63 1865.76 413.888 1942.48 471.146 1980.84 540.226 1980.84 621.123 1977.69 666.3 1965.08 707.8 1943.01 745.622 1920.94 783.444 1891.51 814.438 1854.73 838.602ZM1588.32 1301.93C1666.09 1301.93 1721.52 1293.26 1754.63 1275.92 1787.73 1258.59 1804.29 1222.07 1804.29 1166.4 1804.29 1143.28 1795.88 1120.43 1779.06 1097.84 1762.25 1075.25 1742.54 1055.82 1719.95 1039.53 1697.35 1023.25 1667.66 1006.44 1630.88 989.103 1594.1 971.768 1562.57 958.109 1536.3 948.129 1510.03 938.149 1478.5 926.854 1441.72 914.247 1407.03 928.955 1378.92 952.069 1357.38 983.588 1335.83 1015.11 1325.06 1050.3 1325.06 1089.17 1325.06 1093.38 1325.06 1097.05 1325.06 1100.21 1325.06 1161.14 1350.55 1210 1401.52 1246.77 1452.49 1283.53 1514.75 1301.93 1588.32 1301.93ZM1728.62 777.141C1756.99 761.381 1779.33 739.581 1795.61 711.739 1811.9 683.897 1820.05 653.167 1820.05 619.547 1820.05 613.244 1820.05 606.94 1820.05 600.636 1820.05 552.307 1794.83 512.647 1744.38 481.653 1693.94 450.659 1641.92 435.163 1588.32 435.163 1532.62 435.163 1489.27 443.568 1458.27 460.378 1427.26 477.189 1411.76 508.707 1411.76 554.934 1411.76 579.098 1420.7 602.475 1438.56 625.063 1456.43 647.651 1481.91 668.138 1515.02 686.524 1548.12 704.911 1581.23 720.932 1614.33 734.591 1647.43 748.249 1685.53 762.432 1728.62 777.141ZM2077 343.759 2379.67 343.759 2379.67 444.619 2077 444.619 2077 343.759ZM2581.44 343.759 2884.11 343.759 2884.11 444.619 2581.44 444.619 2581.44 343.759ZM3085.89 343.759 3388.56 343.759 3388.56 444.619 3085.89 444.619 3085.89 343.759ZM3893 343.759 3893 646.338 3792.11 646.338 3792.11 444.619 3590.33 444.619 3590.33 343.759 3893 343.759Z" fill-rule="evenodd"/></g></svg>