<svg width="2724" height="1100" xmlns="http://www.w3.org/2000/svg" xmlns:xlink="http://www.w3.org/1999/xlink" xml:space="preserve" overflow="hidden"><defs><clipPath id="clip0"><rect x="1169" y="328" width="2724" height="1100"/></clipPath></defs><g clip-path="url(#clip0)" transform="translate(-1169 -328)"><path d="M1854.21 838.602C1900.41 859.613 1937.43 891.92 1965.26 935.521 1993.09 979.123 2007 1026.66 2007 1078.14 2007 1085.5 2006.48 1092.85 2005.43 1100.21 2005.43 1190.55 1964.73 1267.78 1883.35 1331.87 1801.96 1395.96 1703.25 1428 1587.21 1428 1471.17 1428 1372.46 1395.96 1291.08 1331.87 1209.69 1267.78 1169 1190.55 1169 1100.21 1170.05 1046.62 1184.75 997.771 1213.11 953.645 1241.46 909.518 1278.74 875.899 1324.94 852.785 1287.14 831.773 1256.69 802.355 1233.58 764.533 1210.48 726.711 1198.93 685.211 1198.93 640.034L1198.93 621.123C1198.93 540.226 1236.73 471.146 1312.34 413.888 1387.95 356.63 1479.84 328 1588 328 1696.16 328 1788.57 356.63 1865.23 413.888 1941.89 471.146 1980.22 540.226 1980.22 621.123 1977.07 666.3 1964.47 707.799 1942.42 745.622 1920.36 783.444 1890.96 814.438 1854.21 838.602ZM1588 1301.93C1665.71 1301.93 1721.1 1293.26 1754.18 1275.92 1787.26 1258.59 1803.8 1222.07 1803.8 1166.4 1803.8 1143.28 1795.4 1120.43 1778.6 1097.84 1761.8 1075.25 1742.11 1055.82 1719.53 1039.53 1696.95 1023.25 1667.28 1006.44 1630.53 989.103 1593.78 971.768 1562.27 958.109 1536.02 948.129 1509.77 938.149 1478.26 926.854 1441.51 914.246 1406.85 928.955 1378.76 952.069 1357.23 983.587 1335.71 1015.11 1324.94 1050.3 1324.94 1089.17L1324.94 1100.21C1324.94 1161.14 1350.41 1210 1401.34 1246.77 1452.27 1283.53 1514.49 1301.93 1588 1301.93ZM1728.19 777.14C1756.55 761.381 1778.86 739.581 1795.14 711.739 1811.41 683.897 1819.55 653.167 1819.55 619.547L1819.55 600.636C1819.55 552.307 1794.35 512.647 1743.94 481.653 1693.54 450.659 1641.56 435.163 1588 435.163 1532.34 435.163 1489.03 443.568 1458.05 460.378 1427.07 477.189 1411.58 508.707 1411.58 554.934 1411.58 579.098 1420.51 602.475 1438.36 625.063 1456.21 647.651 1481.67 668.138 1514.75 686.524 1547.83 704.911 1580.91 720.932 1613.99 734.59 1647.07 748.249 1685.14 762.432 1728.19 777.14Z" fill-rule="evenodd"/><path d="M0 0 302.667 0 302.667 101 0 101 0 0ZM504.445 0 807.111 0 807.111 101 504.445 101 504.445 0ZM1008.89 0 1311.56 0 1311.56 101 1008.89 101 1008.89 0ZM1816 0 1816 303 1715.11 303 1715.11 101 1513.33 101 1513.33 0 1816 0Z" fill-rule="evenodd" transform="matrix(1 0 0 -1 2077 1412)"/></g></svg>