<svg width="839" height="839" xmlns="http://www.w3.org/2000/svg" xmlns:xlink="http://www.w3.org/1999/xlink" xml:space="preserve" overflow="hidden"><defs><clipPath id="clip0"><rect x="1784" y="780" width="839" height="839"/></clipPath></defs><g clip-path="url(#clip0)" transform="translate(-1784 -780)"><path d="M2589.38 780C2598.98 780 2606.99 783.202 2613.39 789.607 2619.8 796.011 2623 804.017 2623 813.624 2623 823.231 2619.8 831.237 2613.39 837.641L2276.09 1174.95C2268.97 1182.07 2265.41 1190.25 2265.41 1199.5 2265.41 1208.75 2268.97 1216.93 2276.09 1224.05L2613.39 1561.36C2619.8 1567.76 2623 1575.77 2623 1585.38 2623 1594.98 2619.8 1602.99 2613.39 1609.39 2606.99 1615.8 2598.98 1619 2589.38 1619 2579.77 1619 2571.76 1615.8 2565.36 1609.39L2228.05 1272.09C2220.93 1264.97 2212.75 1261.41 2203.5 1261.41 2194.25 1261.41 2186.07 1264.97 2178.95 1272.09L1841.64 1609.39C1835.24 1615.8 1827.23 1619 1817.62 1619 1808.02 1619 1800.01 1615.8 1793.61 1609.39 1787.2 1602.99 1784 1594.98 1784 1585.38 1784 1575.77 1787.2 1567.76 1793.61 1561.36L2130.92 1224.05C2138.03 1216.93 2141.59 1208.75 2141.59 1199.5 2141.59 1190.25 2138.03 1182.07 2130.92 1174.95L1793.61 837.641C1787.2 831.237 1784 823.231 1784 813.624 1784 804.017 1787.2 796.011 1793.61 789.607 1800.01 783.202 1808.02 780 1817.62 780 1827.23 780 1835.24 783.202 1841.64 789.607L2178.95 1126.91C2186.07 1134.03 2194.25 1137.59 2203.5 1137.59 2212.75 1137.59 2220.93 1134.03 2228.05 1126.91L2565.36 789.607C2571.76 783.202 2579.77 780 2589.38 780Z" fill-rule="evenodd"/></g></svg>