<svg width="2626" height="707" xmlns="http://www.w3.org/2000/svg" xmlns:xlink="http://www.w3.org/1999/xlink" xml:space="preserve" overflow="hidden"><defs><clipPath id="clip0"><rect x="1781" y="721" width="2626" height="707"/></clipPath></defs><g clip-path="url(#clip0)" transform="translate(-1781 -721)"><path d="M4353.41 1428 4347.1 1428 1825.13 1125C1813.58 1123.95 1803.33 1118.42 1794.4 1108.43 1785.47 1098.44 1781 1087.12 1781 1074.5L1781 1074.5C1781 1061.88 1785.47 1050.56 1794.4 1040.57 1803.33 1030.58 1813.58 1025.05 1825.13 1024L4347.1 721C4349.2 721 4351.31 721 4353.41 721 4367.07 721 4378.9 725.998 4388.87 735.992 4398.85 745.986 4403.85 757.822 4403.85 771.5 4403.85 784.125 4399.64 795.435 4391.24 805.429 4382.84 815.424 4372.32 820.947 4359.71 822L2253.87 1074.5 4359.71 1327C4372.32 1328.05 4383.36 1333.58 4392.81 1343.57 4402.27 1353.56 4407 1364.88 4407 1377.5 4407 1391.18 4402 1403.02 4392.03 1413.01 4382.05 1423 4370.23 1428 4356.56 1428 4355.5 1428 4354.46 1428 4353.41 1428Z" fill-rule="evenodd"/></g></svg>