<svg width="2626" height="707" xmlns="http://www.w3.org/2000/svg" xmlns:xlink="http://www.w3.org/1999/xlink" xml:space="preserve" overflow="hidden"><defs><clipPath id="clip0"><rect x="1781" y="721" width="2626" height="707"/></clipPath></defs><g clip-path="url(#clip0)" transform="translate(-1781 -721)"><path d="M2572.41 707 2566.1 707 44.1344 404C32.5754 402.948 22.3299 397.424 13.3979 387.43 4.46583 377.436 0 366.125 0 353.5L0 353.5C0 340.875 4.46583 329.565 13.3979 319.57 22.3299 309.576 32.5754 304.053 44.1344 303L2566.1 0C2568.2 0 2570.31 0 2572.41 0 2586.07 0 2597.9 4.99795 2607.87 14.992 2617.85 24.9865 2622.85 36.8224 2622.85 50.5001 2622.85 63.125 2618.64 74.4356 2610.24 84.4297 2601.84 94.4241 2591.32 99.9473 2578.71 101L472.869 353.5 2578.71 606C2591.32 607.053 2602.36 612.576 2611.81 622.57 2621.27 632.565 2626 643.875 2626 656.5 2626 670.182 2621 682.019 2611.03 692.008 2601.05 701.998 2589.23 707 2575.56 707 2574.5 707 2573.46 707 2572.41 707Z" fill-rule="evenodd" transform="matrix(-1 0 0 1 4407 721)"/></g></svg>