<svg width="530" height="455" xmlns="http://www.w3.org/2000/svg" xmlns:xlink="http://www.w3.org/1999/xlink" xml:space="preserve" overflow="hidden"><defs><clipPath id="clip0"><rect x="500" y="515" width="530" height="455"/></clipPath></defs><g clip-path="url(#clip0)" transform="translate(-500 -515)"><path d="M1022.11 592.145 809.167 944.81C798.651 961.604 783.929 970 765 970 746.072 970 731.35 961.604 720.833 944.81L507.887 592.145C502.63 583.749 500 574.827 500 565.381 500 551.735 504.996 539.927 514.985 529.957 524.975 519.986 536.805 515 550.476 515L552.054 515 977.946 515 979.524 515C993.195 515 1005.03 519.986 1015.01 529.957 1025 539.927 1030 551.735 1030 565.381 1030 574.827 1027.37 583.749 1022.11 592.145Z" fill-rule="evenodd"/></g></svg>