<svg width="1967" height="1917" xmlns="http://www.w3.org/2000/svg" xmlns:xlink="http://www.w3.org/1999/xlink" xml:space="preserve" overflow="hidden"><defs><clipPath id="clip0"><rect x="1255" y="302" width="1967" height="1917"/></clipPath></defs><g clip-path="url(#clip0)" transform="translate(-1255 -302)"><path d="M2314.15 749.72C2314.15 715.038 2317.04 694.807 2322.82 689.026 2328.6 683.245 2348.83 680.356 2383.5 680.356L3152.65 680.356C3187.33 680.356 3207.55 683.245 3213.33 689.026 3219.12 694.807 3222 715.038 3222 749.72 3222 784.403 3219.12 804.634 3213.33 810.415 3207.55 816.196 3187.33 819.086 3152.65 819.086L2383.5 819.086C2348.83 819.086 2328.6 816.196 2322.82 810.415 2317.04 804.634 2314.15 784.403 2314.15 749.72ZM2698.73 377.671C2698.73 339.836 2701.88 317.765 2708.18 311.459 2714.49 305.153 2736.55 302 2774.38 302 2812.21 302 2834.27 305.153 2840.58 311.459 2846.88 317.765 2850.04 339.836 2850.04 377.671L2850.04 1134.38C2850.04 1172.22 2846.88 1194.29 2840.58 1200.59 2834.27 1206.9 2812.21 1210.05 2774.38 1210.05 2736.55 1210.05 2714.49 1206.9 2708.18 1200.59 2701.88 1194.29 2698.73 1172.22 2698.73 1134.38L2698.73 377.671ZM1406.31 1374.01 2868.95 1374.01 2868.95 1449.68 1406.31 1449.68 1406.31 1752.36 2868.95 1752.36 2868.95 1829.61 1406.31 1829.61 1406.31 2144.91 2868.95 2144.91 2868.95 2219 1255 2219 1255 604.684 2224.31 604.684C2213.81 628.856 2205.4 654.08 2199.1 680.356L1406.31 680.356 1406.31 995.651 2263.72 995.651C2284.73 1024.03 2308.9 1049.78 2336.22 1072.9L1406.31 1072.9 1406.31 1374.01Z" fill-rule="evenodd"/><path d="M2314.15 750.008C2314.15 715.332 2317.04 695.105 2322.82 689.326 2328.6 683.546 2348.83 680.656 2383.5 680.656L3152.65 680.656C3187.33 680.656 3207.55 683.546 3213.33 689.326 3219.12 695.105 3222 715.332 3222 750.008 3222 784.684 3219.12 804.911 3213.33 810.69 3207.55 816.47 3187.33 819.359 3152.65 819.359L2383.5 819.359C2348.83 819.359 2328.6 816.47 2322.82 810.69 2317.04 804.911 2314.15 784.684 2314.15 750.008ZM1406.31 1374.17 2868.95 1374.17 2868.95 1449.83 1406.31 1449.83 1406.31 1752.45 2868.95 1752.45 2868.95 1829.69 1406.31 1829.69 1406.31 2144.92 2868.95 2144.92 2868.95 2219 1255 2219 1255 605 2224.31 605C2213.81 629.167 2205.4 654.386 2199.1 680.656L1406.31 680.656 1406.31 995.891 2263.72 995.891C2284.73 1024.26 2308.9 1050.01 2336.22 1073.12L1406.31 1073.12 1406.31 1374.17Z" fill-rule="evenodd"/></g></svg>