<svg width="1412" height="202" xmlns="http://www.w3.org/2000/svg" xmlns:xlink="http://www.w3.org/1999/xlink" xml:space="preserve" overflow="hidden"><defs><clipPath id="clip0"><rect x="932" y="1160" width="1412" height="202"/></clipPath></defs><g clip-path="url(#clip0)" transform="translate(-932 -1160)"><path d="M1103.77 1189.98C1123.73 1209.97 1133.71 1233.65 1133.71 1261 1133.71 1288.35 1123.73 1312.03 1103.77 1332.02 1083.81 1352.01 1060.17 1362 1032.86 1362 1005.54 1362 981.903 1352.01 961.942 1332.02 941.981 1312.03 932 1288.35 932 1261 932 1233.65 941.981 1209.97 961.942 1189.98 981.903 1169.99 1005.54 1160 1032.86 1160 1060.17 1160 1083.81 1169.99 1103.77 1189.98ZM1567.08 1189.98C1587.05 1169.99 1610.68 1160 1638 1160 1665.31 1160 1688.95 1169.99 1708.92 1189.98 1728.88 1209.97 1738.86 1233.65 1738.86 1261 1738.86 1288.35 1728.88 1312.03 1708.92 1332.02 1688.95 1352.01 1665.31 1362 1638 1362 1610.68 1362 1587.05 1352.01 1567.08 1332.02 1547.12 1312.03 1537.14 1288.35 1537.14 1261 1537.14 1233.65 1547.12 1209.97 1567.08 1189.98ZM2172.23 1189.98C2192.19 1169.99 2215.83 1160 2243.14 1160 2270.46 1160 2294.1 1169.99 2314.06 1189.98 2334.02 1209.97 2344 1233.65 2344 1261 2344 1288.35 2334.02 1312.03 2314.06 1332.02 2294.1 1352.01 2270.46 1362 2243.14 1362 2215.83 1362 2192.19 1352.01 2172.23 1332.02 2152.27 1312.03 2142.29 1288.35 2142.29 1261 2142.29 1233.65 2152.27 1209.97 2172.23 1189.98Z" fill-rule="evenodd"/></g></svg>