<svg width="1414" height="1414" xmlns="http://www.w3.org/2000/svg" xmlns:xlink="http://www.w3.org/1999/xlink" xml:space="preserve" overflow="hidden"><defs><clipPath id="clip0"><rect x="930" y="553" width="1414" height="1414"/></clipPath></defs><g clip-path="url(#clip0)" transform="translate(-930 -553)"><path d="M2329.81 1880.3C2339.27 1890.81 2344 1902.37 2344 1914.98 2344 1929.69 2338.22 1942.3 2326.66 1952.81 2317.2 1962.27 2305.38 1967 2291.19 1967 2277 1967 2265.18 1962.27 2255.72 1952.81L1839.56 1535.08C1811.19 1558.2 1776.25 1579.73 1734.73 1599.71 1693.22 1619.68 1650.4 1635.18 1606.26 1646.21 1562.12 1657.24 1521.66 1662.76 1484.88 1662.76 1410.27 1662.76 1338.54 1648.31 1269.71 1619.41 1200.87 1590.52 1141.76 1551.1 1092.37 1501.18 1042.97 1451.27 1003.56 1392.15 974.138 1323.84 944.712 1255.53 930 1183.81 930 1108.67 930 1033.53 944.712 961.542 974.138 892.707 1003.56 823.872 1042.97 764.758 1092.37 715.366 1141.76 665.973 1200.87 626.565 1269.71 597.138 1338.54 567.712 1410.27 553 1484.88 553 1545.83 553 1604.42 562.458 1660.65 581.375 1716.87 600.291 1767.84 626.826 1813.55 660.981 1859.27 695.136 1899.2 735.07 1933.36 780.785 1967.51 826.5 1993.78 877.468 2012.18 933.692 2030.57 989.917 2039.76 1047.98 2039.76 1107.88 2039.76 1163.58 2027.41 1226.11 2002.72 1295.47 1978.02 1364.83 1947.81 1420.53 1912.08 1462.56L2329.81 1880.3ZM1165.67 1430.25C1254.47 1519.05 1361.4 1563.45 1486.46 1563.45 1611.51 1563.45 1718.45 1519.05 1807.25 1430.25 1896.05 1341.45 1940.45 1234.52 1940.45 1109.46 1940.45 984.399 1896.05 877.468 1807.25 788.667 1718.45 699.865 1611.51 655.464 1486.46 655.464 1361.4 655.464 1254.47 699.865 1165.67 788.667 1076.87 877.468 1032.46 984.399 1032.46 1109.46 1032.46 1234.52 1076.87 1341.45 1165.67 1430.25Z" fill-rule="evenodd"/></g></svg>