<svg width="1292" height="392" xmlns="http://www.w3.org/2000/svg" xmlns:xlink="http://www.w3.org/1999/xlink" xml:space="preserve" overflow="hidden"><defs><clipPath id="clip0"><path d="M1285.1 332.927 24.5454 555.197-5.09949 387.073 1255.45 164.803Z" fill-rule="evenodd" clip-rule="evenodd"/></clipPath><clipPath id="clip1"><path d="M1285.1 332.927 24.5454 555.197-5.09949 387.073 1255.45 164.803Z" fill-rule="evenodd" clip-rule="evenodd"/></clipPath><clipPath id="clip2"><path d="M1285.1 332.927 24.5454 555.197-5.09949 387.073 1255.45 164.803Z" fill-rule="evenodd" clip-rule="evenodd"/></clipPath></defs><g transform="translate(6 -164)"><g clip-path="url(#clip0)"><g clip-path="url(#clip1)"><g clip-path="url(#clip2)"><path d="M1255.45 164.803C1196.31 227.279 1111.25 284.69 1000.28 337.047 956.289 357.504 901.946 377.948 837.234 398.373 772.526 418.798 716.298 433.222 668.549 441.642 663.774 442.484 659.196 443.291 654.822 444.062 605.409 452.365 545.76 457.862 475.876 460.556 405.99 463.247 346.016 462.246 295.954 457.549 252.822 454.909 201.817 446.587 142.931 432.588 84.0482 418.584 34.7048 403.414-5.09949 387.073 24.4799 389.642 59.077 392.151 98.6909 394.591 138.305 397.031 178.011 398.842 217.808 400.019 257.606 401.197 292.25 401.648 321.74 401.363 366.447 401.269 420.461 398.711 483.779 393.691 547.101 388.675 600.882 382.472 645.123 375.081 650.295 374.169 655.464 373.258 660.64 372.345 702.418 364.978 752.315 353.619 810.328 338.267 868.344 322.915 917.41 308.012 957.528 293.559 1000.04 278.689 1050.35 258.651 1108.47 233.445 1166.59 208.235 1215.59 185.357 1255.45 164.803Z" fill-rule="evenodd"/></g></g></g></g></svg>