<svg width="550" height="367" xmlns="http://www.w3.org/2000/svg" xmlns:xlink="http://www.w3.org/1999/xlink" xml:space="preserve" overflow="hidden"><g transform="translate(-1936 -1218)"><path d="M1992 1503.05C2120.98 1581.57 2339.98 1539.05 2430 1418 2344.54 1562.43 2125.55 1604.95 1992 1503.05" stroke="#000000" stroke-width="5.98143" stroke-linecap="round" stroke-linejoin="round" stroke-miterlimit="10" fill-rule="evenodd"/><path d="M2043.5 1412.5 2043.5 1218.5" stroke="#000000" stroke-width="9.38428" stroke-linejoin="bevel" stroke-miterlimit="10" fill="none" fill-rule="evenodd"/><path d="M2262.5 1373.5 2262.5 1218.5" stroke="#000000" stroke-width="9.38428" stroke-linejoin="bevel" stroke-miterlimit="10" fill="none" fill-rule="evenodd"/><path d="M2481.5 1330.5 2481.5 1218.5" stroke="#000000" stroke-width="9.38428" stroke-linejoin="bevel" stroke-miterlimit="10" fill="none" fill-rule="evenodd"/><path d="M2043.59 1398.57C2037.46 1387.19 2024.49 1381.02 2008.74 1381.02 1997.16 1381.02 1984.52 1384.46 1972.19 1391 1949.67 1403.02 1936.01 1423.25 1936.01 1440.79 1936.01 1445.57 1937.02 1450.4 1939.42 1454.85 1945.56 1466.17 1958.53 1472.02 1974.27 1472.02 1985.85 1472.02 1998.5 1468.96 2010.83 1462.42 2033.35 1450.4 2047.01 1430.12 2047.01 1412.63 2047.01 1407.8 2045.99 1403.02 2043.59 1398.57" fill-rule="evenodd"/><path d="M2262.62 1356.37C2256.48 1345.12 2243.51 1339.02 2227.77 1339.02 2216.19 1339.02 2203.54 1342.41 2191.21 1348.89 2168.69 1360.77 2155.03 1380.78 2155.03 1398.13 2155.03 1402.86 2156.04 1407.63 2158.45 1412.04 2164.58 1423.23 2177.55 1429.02 2193.29 1429.02 2204.87 1429.02 2217.52 1425.99 2229.85 1419.52 2252.37 1407.63 2266.03 1387.57 2266.03 1370.27 2266.03 1365.5 2265.02 1360.77 2262.62 1356.37" fill-rule="evenodd"/><path d="M2481.64 1313.37C2475.5 1302.12 2462.53 1296.01 2446.79 1296.01 2435.21 1296.01 2422.56 1299.41 2410.24 1305.88 2387.72 1317.77 2374.05 1337.78 2374.05 1355.13 2374.05 1359.85 2375.07 1364.63 2377.47 1369.03 2383.61 1380.23 2396.57 1386.01 2412.32 1386.01 2423.9 1386.01 2436.54 1382.99 2448.87 1376.51 2471.39 1364.63 2485.05 1344.57 2485.05 1327.27 2485.05 1322.49 2484.04 1317.77 2481.64 1313.37" fill-rule="evenodd"/></g></svg>