<svg width="2302" height="2232" xmlns="http://www.w3.org/2000/svg" xmlns:xlink="http://www.w3.org/1999/xlink" xml:space="preserve" overflow="hidden"><defs><clipPath id="clip0"><rect x="659" y="172" width="2302" height="2232"/></clipPath></defs><g clip-path="url(#clip0)" transform="translate(-659 -172)"><path d="M1978.71 744.187C1997.63 748.39 2017.86 757.848 2039.41 772.559 2060.96 787.271 2076.99 803.56 2087.5 821.424 2099.06 846.644 2104.85 873.441 2104.85 901.814 2104.85 937.543 2095.91 970.645 2078.04 1001.12 2061.22 1030.54 2036.26 1061.02 2003.15 1092.54 1970.04 1124.07 1938.24 1147.71 1907.76 1163.47 1891.99 1172.93 1872.28 1181.6 1848.63 1189.48 1824.98 1197.36 1800.8 1203.67 1776.1 1208.4 1751.4 1213.13 1729.59 1216.02 1710.67 1217.07L1679.13 1217.07C1645.5 1213.92 1613.96 1203.41 1584.53 1185.54L1584.53 2252.68 1507.27 2252.68 1507.27 1046.83C1507.27 1030.02 1509.9 1013.2 1515.15 996.39 1528.82 956.458 1554.05 915.475 1590.84 873.441 1627.63 831.406 1664.94 800.932 1702.78 782.017 1728.01 768.355 1760.07 756.533 1798.96 746.551 1837.86 736.568 1871.49 731.576 1899.87 731.576 1910.38 731.576 1920.37 732.628 1929.83 734.729 1946.65 736.83 1962.94 739.983 1978.71 744.187ZM2940.5 671.678C2954.17 697.949 2961 725.796 2961 755.22 2961 788.847 2952.6 820.372 2935.77 849.797 2918.95 879.221 2893.99 909.695 2860.88 941.22 2827.77 972.746 2795.97 996.39 2765.49 1012.15 2740.26 1025.81 2708.46 1037.9 2670.1 1048.41 2631.74 1058.92 2597.84 1064.69 2568.4 1065.75L2536.86 1065.75C2503.23 1062.59 2471.7 1052.08 2442.26 1034.22L2442.26 2101.36 2365 2101.36 2365 895.508C2365 878.694 2367.64 861.882 2372.89 845.068 2382.35 818.796 2396.81 791.474 2416.25 763.102 2435.69 734.729 2458.3 708.72 2484.04 685.076 2509.79 661.432 2535.29 643.305 2560.52 630.695 2585.74 617.033 2617.8 605.211 2656.69 595.229 2695.59 585.246 2729.22 580.254 2757.6 580.254 2768.12 580.254 2778.1 581.305 2787.56 583.407 2804.39 585.508 2820.67 588.66 2836.44 592.864 2855.36 597.068 2875.07 606.788 2895.57 622.025 2916.06 637.263 2931.04 653.814 2940.5 671.678ZM1135.17 895.508C1154.09 899.712 1173.8 909.432 1194.29 924.669 1214.79 939.907 1229.77 955.932 1239.23 972.746 1251.84 997.966 1258.15 1024.76 1258.15 1053.14 1258.15 1088.86 1248.69 1121.97 1229.77 1152.44 1214 1181.86 1189.56 1212.34 1156.45 1243.86 1123.34 1275.39 1091.54 1299.03 1061.06 1314.8 1044.24 1324.25 1024.27 1332.92 1001.15 1340.8 978.021 1348.69 954.108 1354.99 929.406 1359.72 904.704 1364.45 882.893 1367.34 863.973 1368.39L832.438 1368.39C798.802 1365.24 767.268 1354.73 737.836 1336.86L737.836 2404 659 2404 659 1198.15C660.051 1180.29 663.204 1163.47 668.46 1147.71 676.869 1120.39 691.06 1092.54 711.031 1064.17 731.003 1035.8 753.865 1009.79 779.619 986.144 805.371 962.5 830.862 944.373 856.089 931.763 872.908 923.356 892.878 915.212 916.004 907.33 939.13 899.449 963.042 893.144 987.745 888.415 1012.45 883.686 1034.26 881.322 1053.18 881.322 1064.74 882.373 1076.3 883.95 1087.87 886.051 1103.63 887.102 1119.4 890.255 1135.17 895.508ZM1762.7 181.458C1812.1 175.152 1862.03 172 1912.49 172 2045.98 172 2196.29 201.949 2363.43 261.847 2530.56 321.746 2665.63 393.729 2768.64 477.797 2764.43 475.695 2758.91 472.543 2752.09 468.339 2745.26 464.135 2729.74 455.992 2705.57 443.906 2681.4 431.821 2656.43 420.263 2630.68 409.229 2604.93 398.195 2572.07 385.321 2532.13 370.61 2492.2 355.899 2451.99 342.5 2411.52 330.415 2371.04 318.33 2324.8 307.034 2272.77 296.525 2220.73 286.016 2169.23 278.135 2118.25 272.881 2067.27 267.628 2011.82 265.525 1951.9 266.576 1891.99 267.628 1833.13 272.356 1775.31 280.763 1701.73 291.272 1629.2 308.611 1557.73 332.78 1486.25 356.948 1422.39 384.009 1366.16 413.957 1309.92 443.906 1256.57 475.957 1206.12 510.11 1155.66 544.263 1112.3 577.102 1076.04 608.627 1039.78 640.152 1008.24 669.05 981.438 695.322 954.634 721.594 934.4 742.085 920.734 756.797L901.814 780.441C904.967 773.084 910.222 763.102 917.581 750.491 924.939 737.881 941.231 712.924 966.459 675.619 991.686 638.313 1019.28 602.059 1049.24 566.856 1079.19 531.653 1118.87 491.983 1168.28 447.847 1217.68 403.712 1269.98 364.568 1325.16 330.415 1380.35 296.262 1446.3 265.263 1523.04 237.415 1599.77 209.567 1679.66 190.915 1762.7 181.458Z" fill-rule="evenodd"/></g></svg>