<svg width="1369" height="1365" xmlns="http://www.w3.org/2000/svg" xmlns:xlink="http://www.w3.org/1999/xlink" xml:space="preserve" overflow="hidden"><g transform="translate(-1516 -553)"><rect x="1615.5" y="1721.5" width="1170" height="194" stroke="#000000" stroke-width="4.58333" stroke-miterlimit="8"/><path d="M1518.5 1818.5C1518.5 1764.93 1562.15 1721.5 1616 1721.5 1669.85 1721.5 1713.5 1764.93 1713.5 1818.5 1713.5 1872.07 1669.85 1915.5 1616 1915.5 1562.15 1915.5 1518.5 1872.07 1518.5 1818.5Z" stroke="#000000" stroke-width="4.58333" stroke-miterlimit="8" fill-rule="evenodd"/><path d="M2687.5 1818.5C2687.5 1764.93 2731.15 1721.5 2785 1721.5 2838.85 1721.5 2882.5 1764.93 2882.5 1818.5 2882.5 1872.07 2838.85 1915.5 2785 1915.5 2731.15 1915.5 2687.5 1872.07 2687.5 1818.5Z" stroke="#000000" stroke-width="4.58333" stroke-miterlimit="8" fill-rule="evenodd"/><path d="M2103.5 653C2103.5 599.152 2146.93 555.5 2200.5 555.5 2254.07 555.5 2297.5 599.152 2297.5 653 2297.5 706.848 2254.07 750.5 2200.5 750.5 2146.93 750.5 2103.5 706.848 2103.5 653Z" stroke="#000000" stroke-width="4.58333" stroke-miterlimit="8" fill-rule="evenodd"/><rect x="1908.5" y="1139.5" width="584" height="195" stroke="#000000" stroke-width="4.58333" stroke-miterlimit="8"/><path d="M1810.5 1237C1810.5 1183.15 1854.15 1139.5 1908 1139.5 1961.85 1139.5 2005.5 1183.15 2005.5 1237 2005.5 1290.85 1961.85 1334.5 1908 1334.5 1854.15 1334.5 1810.5 1290.85 1810.5 1237Z" stroke="#000000" stroke-width="4.58333" stroke-miterlimit="8" fill-rule="evenodd"/><path d="M2395.5 1237C2395.5 1183.15 2439.15 1139.5 2493 1139.5 2546.85 1139.5 2590.5 1183.15 2590.5 1237 2590.5 1290.85 2546.85 1334.5 2493 1334.5 2439.15 1334.5 2395.5 1290.85 2395.5 1237Z" stroke="#000000" stroke-width="4.58333" stroke-miterlimit="8" fill-rule="evenodd"/></g></svg>